<svg width="80" height="80" viewBox="0 0 80 80" fill="none" xmlns="http://www.w3.org/2000/svg">
<path d="M67.413 24.672C68.7918 20.0836 71.2563 15.8955 74.5975 12.4626C74.634 12.4285 74.6831 12.3814 74.7184 12.346C74.9549 12.0871 75.2668 11.9092 75.6099 11.8375C76.7147 11.9629 77.8201 11.6072 78.6444 10.8608C79.5267 10.0667 80.0209 8.92856 79.9988 7.74152C80.0266 6.36156 79.493 5.02946 78.5203 4.05047C77.5267 3.03521 75.5687 1.68526 70.0608 1.68526C69.7143 1.68526 69.508 1.6918 69.508 1.6918C65.1717 2.16786 60.8766 2.96491 56.6582 4.07642C51.7318 5.23855 46.8849 6.71507 42.1472 8.49692C41.603 8.6635 41.0365 8.74626 40.4674 8.74236C38.9456 8.6863 37.457 8.28086 36.1169 7.55742C35.4341 6.94701 34.7085 6.38629 33.9457 5.87954C32.7535 4.49961 31.0197 3.7074 29.1964 3.70954C28.9061 3.70961 28.6161 3.72905 28.3283 3.76774C26.4788 1.92221 23.9152 0.000108704 21.2606 0.000108704C20.0335 -0.00761568 18.8393 0.396528 17.8689 1.1479C17.8163 1.18874 17.7648 1.23067 17.7143 1.27369C15.5544 2.99927 15.202 6.14954 16.927 8.31002C16.9502 8.33896 16.9736 8.36764 16.9973 8.39607C17.2804 8.73848 17.6162 9.03357 17.9921 9.27023C19.3013 10.1172 20.3401 11.3222 20.9852 12.742C21.0595 13.1092 21.0762 13.4858 21.0347 13.8581L13.8855 21.0093C13.7633 21.0284 13.6397 21.0373 13.5161 21.0358C13.2633 21.0346 13.0111 21.0095 12.763 20.9611C11.3383 20.31 10.1303 19.2636 9.28248 17.9461C9.04598 17.5807 8.75616 17.2527 8.42266 16.9731C7.53304 16.2239 6.40769 15.8127 5.24476 15.8118C3.71937 15.8306 2.27877 16.5169 1.30289 17.6898C1.25961 17.7406 1.21752 17.7923 1.17663 17.845C-1.04713 20.7162 -0.0860655 24.4554 3.78205 28.3045C3.48671 30.422 4.28972 32.5442 5.91273 33.9355C6.41853 34.6962 6.97789 35.4198 7.58655 36.101C8.63499 37.925 8.96894 40.0735 8.52364 42.1299C6.74226 46.8691 5.26612 51.7176 4.10428 56.6456C2.99923 60.8385 2.20361 65.1069 1.72385 69.4165C1.63301 72.4143 1.95371 76.3265 3.97823 78.4132C4.93821 79.4203 6.26781 79.9914 7.65893 79.9943L7.76428 79.9932C8.98552 80.064 10.1728 79.5763 10.9919 78.6674C11.7425 77.826 12.0654 76.6865 11.8679 75.5763C11.9449 75.2438 12.1203 74.9423 12.3713 74.7111C12.4151 74.6676 12.4578 74.6229 12.4996 74.5776C15.9296 71.2418 20.1121 68.7812 24.6935 67.4037C24.7899 67.3755 24.8853 67.3439 24.9796 67.3088C26.9378 66.7009 28.9706 66.3666 31.0204 66.3151C31.3067 66.3211 32.0477 66.3343 33.0728 66.3343C36.8897 66.3818 40.7048 66.1418 44.4857 65.6164C50.3596 64.5157 53.8364 63.6871 55.9364 63.0745L71.6026 77.5039C73.3008 79.0688 75.9456 78.9603 77.5101 77.2617C78.9845 75.6607 78.9846 73.196 77.5102 71.5949L63.0861 55.9251C63.6965 53.8339 64.5204 50.3772 65.612 44.5499C66.2011 40.0584 66.4394 35.5279 66.3248 30.9994C66.3771 28.9495 66.7114 26.9165 67.3181 24.9578C67.3531 24.8637 67.3847 24.7684 67.413 24.672ZM65.4935 18.1893C65.5105 18.1324 65.5223 18.074 65.5287 18.0149C65.5323 17.4339 65.0644 16.96 64.4835 16.9564C63.9027 16.9528 63.4289 17.4208 63.4253 18.0019C63.4217 18.5829 63.8896 19.0568 64.4705 19.0604C64.7468 19.0622 65.0128 18.955 65.2108 18.7621C64.4837 20.2906 63.8784 21.874 63.4004 23.4978C62.6149 25.9153 62.191 28.4358 62.1424 30.9773C62.1424 30.9773 62.1695 32.0418 62.1616 33.6319C61.9705 33.3736 61.6697 33.2197 61.3485 33.2159C60.7713 33.2159 60.3034 33.684 60.3034 34.2613C60.3034 34.8386 60.7713 35.3067 61.3485 35.3067C61.6611 35.3034 61.9551 35.158 62.1475 34.9116C62.1238 36.3891 62.0668 38.1201 61.9433 39.8384C61.7721 39.7077 61.5639 39.6345 61.3485 39.6295C60.7713 39.6295 60.3034 40.0975 60.3034 40.6749C60.3034 41.2522 60.7713 41.7203 61.3485 41.7203C61.501 41.7186 61.6512 41.6829 61.7882 41.6159C61.7096 42.3698 61.6164 43.1009 61.5028 43.7796C61.5028 43.7796 59.9137 52.2544 58.8038 55.6573C58.6334 55.5285 58.4268 55.4565 58.2133 55.4516C57.6362 55.4511 57.168 55.9188 57.1675 56.4961C57.1671 57.0734 57.6346 57.5417 58.2117 57.5421C58.2123 57.5421 58.2128 57.5421 58.2128 57.5421C58.4009 57.5374 58.5836 57.4808 58.741 57.3786L74.4346 74.4275L56.9054 58.2821C54.5398 59.2068 52.0864 59.889 49.5831 60.3183C49.8101 59.7867 49.5631 59.1716 49.0316 58.9446C48.5001 58.7176 47.8853 58.9646 47.6583 59.4963C47.4851 59.9021 47.5849 60.373 47.9079 60.6736C45.6192 61.1492 43.7957 61.4919 43.7957 61.4919C40.2424 61.9732 36.6586 62.194 33.073 62.1524C31.8075 62.1524 30.9975 62.1316 30.9975 62.1316C28.4566 62.1801 25.9369 62.6042 23.52 63.3901C18.2033 64.9692 13.36 67.8402 9.42224 71.747C8.30031 72.7999 7.66843 74.2733 7.67888 75.8121L7.65898 75.8123C5.71366 75.8123 5.89931 69.6254 5.89931 69.6254C6.07479 67.5649 6.38685 65.5184 6.83344 63.4993C7.02119 63.7807 7.33548 63.9515 7.67366 63.9559C8.25084 63.9559 8.71874 63.4878 8.71874 62.9105C8.71874 62.3331 8.25084 61.8651 7.67366 61.8651C7.48418 61.8699 7.29983 61.9277 7.14147 62.0319C7.68642 59.5194 8.20247 57.4926 8.20247 57.4926C9.3387 52.7405 10.7669 48.063 12.4789 43.4868C13.325 40.1349 12.7875 36.5834 10.9873 33.6323C10.2421 32.8855 9.60761 32.0358 9.10307 31.1092C8.05448 30.5552 7.62459 29.2759 8.12577 28.2009C8.64622 26.8626 8.27734 26.7329 8.27734 26.7329C8.27734 26.7329 2.96755 22.361 4.48162 20.4063C4.66574 20.1665 4.94325 20.0164 5.24469 19.9938C5.43449 19.9977 5.61665 20.0693 5.7583 20.1958C7.17758 22.3985 9.26688 24.0868 11.7182 25.0117C12.3076 25.149 12.9109 25.2181 13.5161 25.2177C14.7425 25.2957 15.9442 24.8482 16.8211 23.987L24.0092 16.7969C25.9218 15.0986 25.0335 11.6924 25.0335 11.6924C24.1089 9.24036 22.4211 7.15045 20.219 5.73084C19.9188 5.35484 19.9802 4.80661 20.3561 4.50634C20.3796 4.48757 20.404 4.47003 20.4293 4.45379C20.6674 4.27125 20.9606 4.17538 21.2606 4.182C23.4063 4.182 26.7542 8.25061 26.7542 8.25061C26.7542 8.25061 26.7987 8.37743 27.1054 8.37743C27.491 8.35112 27.869 8.25683 28.2218 8.09891C28.5285 7.96211 28.8605 7.89144 29.1963 7.89148C30.0095 7.90097 30.7518 8.35613 31.1293 9.07665C32.0556 9.58137 32.9049 10.216 33.6515 10.9614C35.7184 12.1875 38.065 12.8633 40.4673 12.9243C41.4978 12.9291 42.5225 12.7703 43.5032 12.4537C48.078 10.741 52.7541 9.3124 57.5048 8.17594C61.4911 7.13423 65.5435 6.36447 69.634 5.87199C69.634 5.87199 69.7932 5.86729 70.0608 5.86729C71.4657 5.86729 75.8545 5.99944 75.8191 7.65196C75.8191 7.65196 75.7642 7.64726 75.6644 7.64726C74.1822 7.69367 72.7778 8.32188 71.7551 9.396C69.1978 11.962 67.0821 14.9331 65.4935 18.1893Z" fill="#0F2644"/>
<path d="M29.8892 23.6801L24.7402 22.0842L30.625 27.9707L29.8892 23.6801Z" fill="#0F2644"/>
<path d="M23.7038 29.8709L27.9932 30.607L22.1084 24.7205L23.7038 29.8709Z" fill="#0F2644"/>
<path d="M61.3503 22.4795C61.9275 22.4795 62.3954 22.0114 62.3954 21.434C62.3954 20.8566 61.9275 20.3886 61.3503 20.3886C60.7731 20.3886 60.3052 20.8566 60.3052 21.434C60.3052 22.0114 60.7731 22.4795 61.3503 22.4795Z" fill="#0F2644"/>
<path d="M61.3502 16.0657C61.9274 16.0657 62.3952 15.5977 62.3952 15.0203C62.3952 14.443 61.9274 13.975 61.3502 13.975C60.7731 13.975 60.3052 14.443 60.3052 15.0203C60.3052 15.5977 60.7731 16.0657 61.3502 16.0657Z" fill="#0F2644"/>
<path d="M67.6203 9.65211C68.1975 9.65211 68.6654 9.18408 68.6654 8.60673C68.6654 8.02937 68.1975 7.56134 67.6203 7.56134C67.0431 7.56134 66.5752 8.02937 66.5752 8.60673C66.5752 9.18408 67.0431 9.65211 67.6203 9.65211Z" fill="#0F2644"/>
<path d="M61.3503 9.65211C61.9274 9.65211 62.3953 9.18408 62.3953 8.60673C62.3953 8.02937 61.9274 7.56134 61.3503 7.56134C60.7731 7.56134 60.3052 8.02937 60.3052 8.60673C60.3052 9.18408 60.7731 9.65211 61.3503 9.65211Z" fill="#0F2644"/>
<path d="M58.2131 19.0604C58.7902 19.0604 59.2581 18.5923 59.2581 18.015C59.2581 17.4376 58.7902 16.9696 58.2131 16.9696C57.6359 16.9696 57.168 17.4376 57.168 18.015C57.168 18.5923 57.6359 19.0604 58.2131 19.0604Z" fill="#0F2644"/>
<path d="M64.483 12.6466C65.0601 12.6466 65.528 12.1786 65.528 11.6013C65.528 11.024 65.0601 10.556 64.483 10.556C63.9058 10.556 63.438 11.024 63.438 11.6013C63.438 12.1786 63.9058 12.6466 64.483 12.6466Z" fill="#0F2644"/>
<path d="M58.213 12.6467C58.7901 12.6467 59.258 12.1787 59.258 11.6014C59.258 11.024 58.7901 10.556 58.213 10.556C57.6358 10.556 57.168 11.024 57.168 11.6014C57.168 12.1787 57.6358 12.6467 58.213 12.6467Z" fill="#0F2644"/>
<path d="M61.3502 28.893C61.9274 28.893 62.3952 28.425 62.3952 27.8477C62.3952 27.2704 61.9274 26.8024 61.3502 26.8024C60.7731 26.8024 60.3052 27.2704 60.3052 27.8477C60.3052 28.425 60.7731 28.893 61.3502 28.893Z" fill="#0F2644"/>
<path d="M58.2131 38.3013C58.7902 38.3013 59.2581 37.8332 59.2581 37.2559C59.2581 36.6785 58.7902 36.2105 58.2131 36.2105C57.6359 36.2105 57.168 36.6785 57.168 37.2559C57.168 37.8332 57.6359 38.3013 58.2131 38.3013Z" fill="#0F2644"/>
<path d="M58.2131 31.8875C58.7902 31.8875 59.2581 31.4195 59.2581 30.8421C59.2581 30.2648 58.7902 29.7968 58.2131 29.7968C57.6359 29.7968 57.168 30.2648 57.168 30.8421C57.168 31.4195 57.6359 31.8875 58.2131 31.8875Z" fill="#0F2644"/>
<path d="M58.2131 25.4741C58.7902 25.4741 59.2581 25.006 59.2581 24.4287C59.2581 23.8513 58.7902 23.3833 58.2131 23.3833C57.6359 23.3833 57.168 23.8513 57.168 24.4287C57.168 25.006 57.6359 25.4741 58.2131 25.4741Z" fill="#0F2644"/>
<path d="M58.2131 51.1287C58.7903 51.1287 59.2582 50.6606 59.2582 50.0832C59.2582 49.5058 58.7903 49.0378 58.2131 49.0378C57.6359 49.0378 57.168 49.5058 57.168 50.0832C57.168 50.6606 57.6359 51.1287 58.2131 51.1287Z" fill="#0F2644"/>
<path d="M58.213 44.715C58.7901 44.715 59.258 44.2469 59.258 43.6696C59.258 43.0923 58.7901 42.6243 58.213 42.6243C57.6358 42.6243 57.168 43.0923 57.168 43.6696C57.168 44.2469 57.6358 44.715 58.213 44.715Z" fill="#0F2644"/>
<path d="M54.8918 22.4795C55.469 22.4795 55.9369 22.0114 55.9369 21.434C55.9369 20.8566 55.469 20.3886 54.8918 20.3886C54.3146 20.3886 53.8467 20.8566 53.8467 21.434C53.8467 22.0114 54.3146 22.4795 54.8918 22.4795Z" fill="#0F2644"/>
<path d="M48.6174 22.4794C49.1946 22.4794 49.6625 22.0114 49.6625 21.434C49.6625 20.8567 49.1946 20.3886 48.6174 20.3886C48.0402 20.3886 47.5723 20.8567 47.5723 21.434C47.5723 22.0114 48.0402 22.4794 48.6174 22.4794Z" fill="#0F2644"/>
<path d="M54.8917 16.0657C55.4689 16.0657 55.9367 15.5977 55.9367 15.0203C55.9367 14.443 55.4689 13.975 54.8917 13.975C54.3146 13.975 53.8467 14.443 53.8467 15.0203C53.8467 15.5977 54.3146 16.0657 54.8917 16.0657Z" fill="#0F2644"/>
<path d="M48.6173 16.0657C49.1944 16.0657 49.6623 15.5977 49.6623 15.0204C49.6623 14.4431 49.1944 13.9751 48.6173 13.9751C48.0401 13.9751 47.5723 14.4431 47.5723 15.0204C47.5723 15.5977 48.0401 16.0657 48.6173 16.0657Z" fill="#0F2644"/>
<path d="M51.7546 19.0604C52.3317 19.0604 52.7996 18.5923 52.7996 18.015C52.7996 17.4376 52.3317 16.9696 51.7546 16.9696C51.1774 16.9696 50.7095 17.4376 50.7095 18.015C50.7095 18.5923 51.1774 19.0604 51.7546 19.0604Z" fill="#0F2644"/>
<path d="M51.7545 12.6467C52.3317 12.6467 52.7995 12.1787 52.7995 11.6014C52.7995 11.024 52.3317 10.556 51.7545 10.556C51.1773 10.556 50.7095 11.024 50.7095 11.6014C50.7095 12.1787 51.1773 12.6467 51.7545 12.6467Z" fill="#0F2644"/>
<path d="M54.8918 41.7203C55.4689 41.7203 55.9368 41.2522 55.9368 40.6749C55.9368 40.0975 55.4689 39.6295 54.8918 39.6295C54.3146 39.6295 53.8467 40.0975 53.8467 40.6749C53.8467 41.2522 54.3146 41.7203 54.8918 41.7203Z" fill="#0F2644"/>
<path d="M54.8918 35.3067C55.4689 35.3067 55.9368 34.8387 55.9368 34.2613C55.9368 33.684 55.4689 33.2159 54.8918 33.2159C54.3146 33.2159 53.8467 33.684 53.8467 34.2613C53.8467 34.8387 54.3146 35.3067 54.8918 35.3067Z" fill="#0F2644"/>
<path d="M54.8917 28.893C55.4689 28.893 55.9367 28.425 55.9367 27.8477C55.9367 27.2704 55.4689 26.8024 54.8917 26.8024C54.3146 26.8024 53.8467 27.2704 53.8467 27.8477C53.8467 28.425 54.3146 28.893 54.8917 28.893Z" fill="#0F2644"/>
<path d="M51.7546 38.3013C52.3317 38.3013 52.7996 37.8332 52.7996 37.2559C52.7996 36.6785 52.3317 36.2105 51.7546 36.2105C51.1774 36.2105 50.7095 36.6785 50.7095 37.2559C50.7095 37.8332 51.1774 38.3013 51.7546 38.3013Z" fill="#0F2644"/>
<path d="M51.7546 31.8875C52.3317 31.8875 52.7996 31.4195 52.7996 30.8421C52.7996 30.2648 52.3317 29.7968 51.7546 29.7968C51.1774 29.7968 50.7095 30.2648 50.7095 30.8421C50.7095 31.4195 51.1774 31.8875 51.7546 31.8875Z" fill="#0F2644"/>
<path d="M51.7546 25.4741C52.3317 25.4741 52.7996 25.006 52.7996 24.4287C52.7996 23.8513 52.3317 23.3833 51.7546 23.3833C51.1774 23.3833 50.7095 23.8513 50.7095 24.4287C50.7095 25.006 51.1774 25.4741 51.7546 25.4741Z" fill="#0F2644"/>
<path d="M42.3478 60.9612C42.9249 60.9612 43.3928 60.4932 43.3928 59.9159C43.3928 59.3386 42.9249 58.8705 42.3478 58.8705C41.7706 58.8705 41.3027 59.3386 41.3027 59.9159C41.3027 60.4932 41.7706 60.9612 42.3478 60.9612Z" fill="#0F2644"/>
<path d="M36.0777 60.9611C36.6548 60.9611 37.1227 60.4931 37.1227 59.9158C37.1227 59.3385 36.6548 58.8705 36.0777 58.8705C35.5006 58.8705 35.0327 59.3385 35.0327 59.9158C35.0327 60.4931 35.5006 60.9611 36.0777 60.9611Z" fill="#0F2644"/>
<path d="M54.8918 54.5476C55.4689 54.5476 55.9368 54.0796 55.9368 53.5023C55.9368 52.9249 55.4689 52.4569 54.8918 52.4569C54.3146 52.4569 53.8467 52.9249 53.8467 53.5023C53.8467 54.0796 54.3146 54.5476 54.8918 54.5476Z" fill="#0F2644"/>
<path d="M48.6173 54.5476C49.1945 54.5476 49.6624 54.0795 49.6624 53.5022C49.6624 52.9249 49.1945 52.4568 48.6173 52.4568C48.0401 52.4568 47.5723 52.9249 47.5723 53.5022C47.5723 54.0795 48.0401 54.5476 48.6173 54.5476Z" fill="#0F2644"/>
<path d="M42.3478 54.5476C42.925 54.5476 43.3929 54.0796 43.3929 53.5023C43.3929 52.9249 42.925 52.4569 42.3478 52.4569C41.7706 52.4569 41.3027 52.9249 41.3027 53.5023C41.3027 54.0796 41.7706 54.5476 42.3478 54.5476Z" fill="#0F2644"/>
<path d="M36.0778 54.5476C36.6549 54.5476 37.1228 54.0795 37.1228 53.5022C37.1228 52.9249 36.6549 52.4568 36.0778 52.4568C35.5006 52.4568 35.0327 52.9249 35.0327 53.5022C35.0327 54.0795 35.5006 54.5476 36.0778 54.5476Z" fill="#0F2644"/>
<path d="M54.8917 48.1338C55.4689 48.1338 55.9367 47.6658 55.9367 47.0885C55.9367 46.5112 55.4689 46.0432 54.8917 46.0432C54.3146 46.0432 53.8467 46.5112 53.8467 47.0885C53.8467 47.6658 54.3146 48.1338 54.8917 48.1338Z" fill="#0F2644"/>
<path d="M51.7545 57.5421C52.3317 57.5421 52.7995 57.0741 52.7995 56.4968C52.7995 55.9195 52.3317 55.4515 51.7545 55.4515C51.1773 55.4515 50.7095 55.9195 50.7095 56.4968C50.7095 57.0741 51.1773 57.5421 51.7545 57.5421Z" fill="#0F2644"/>
<path d="M48.6173 48.1338C49.1944 48.1338 49.6623 47.6658 49.6623 47.0885C49.6623 46.5112 49.1944 46.0432 48.6173 46.0432C48.0401 46.0432 47.5723 46.5112 47.5723 47.0885C47.5723 47.6658 48.0401 48.1338 48.6173 48.1338Z" fill="#0F2644"/>
<path d="M45.485 57.5421C46.0621 57.5421 46.53 57.0741 46.53 56.4968C46.53 55.9195 46.0621 55.4515 45.485 55.4515C44.9078 55.4515 44.4399 55.9195 44.4399 56.4968C44.4399 57.0741 44.9078 57.5421 45.485 57.5421Z" fill="#0F2644"/>
<path d="M39.2149 57.5421C39.792 57.5421 40.2599 57.0741 40.2599 56.4968C40.2599 55.9195 39.792 55.4515 39.2149 55.4515C38.6378 55.4515 38.1699 55.9195 38.1699 56.4968C38.1699 57.0741 38.6378 57.5421 39.2149 57.5421Z" fill="#0F2644"/>
<path d="M32.9454 57.5421C33.5226 57.5421 33.9904 57.0741 33.9904 56.4968C33.9904 55.9195 33.5226 55.4515 32.9454 55.4515C32.3683 55.4515 31.9004 55.9195 31.9004 56.4968C31.9004 57.0741 32.3683 57.5421 32.9454 57.5421Z" fill="#0F2644"/>
<path d="M51.7546 51.1287C52.3318 51.1287 52.7997 50.6606 52.7997 50.0832C52.7997 49.5058 52.3318 49.0378 51.7546 49.0378C51.1774 49.0378 50.7095 49.5058 50.7095 50.0832C50.7095 50.6606 51.1774 51.1287 51.7546 51.1287Z" fill="#0F2644"/>
<path d="M45.4846 51.1287C46.0618 51.1287 46.5297 50.6606 46.5297 50.0832C46.5297 49.5058 46.0618 49.0378 45.4846 49.0378C44.9074 49.0378 44.4395 49.5058 44.4395 50.0832C44.4395 50.6606 44.9074 51.1287 45.4846 51.1287Z" fill="#0F2644"/>
<path d="M39.215 51.1286C39.7922 51.1286 40.2601 50.6606 40.2601 50.0832C40.2601 49.5058 39.7922 49.0378 39.215 49.0378C38.6378 49.0378 38.1699 49.5058 38.1699 50.0832C38.1699 50.6606 38.6378 51.1286 39.215 51.1286Z" fill="#0F2644"/>
<path d="M32.9455 51.1287C33.5227 51.1287 33.9906 50.6606 33.9906 50.0832C33.9906 49.5058 33.5227 49.0378 32.9455 49.0378C32.3683 49.0378 31.9004 49.5058 31.9004 50.0832C31.9004 50.6606 32.3683 51.1287 32.9455 51.1287Z" fill="#0F2644"/>
<path d="M51.7545 44.715C52.3317 44.715 52.7995 44.2469 52.7995 43.6696C52.7995 43.0923 52.3317 42.6243 51.7545 42.6243C51.1773 42.6243 50.7095 43.0923 50.7095 43.6696C50.7095 44.2469 51.1773 44.715 51.7545 44.715Z" fill="#0F2644"/>
<path d="M29.6192 60.9612C30.1964 60.9612 30.6643 60.4932 30.6643 59.9159C30.6643 59.3386 30.1964 58.8705 29.6192 58.8705C29.0421 58.8705 28.5742 59.3386 28.5742 59.9159C28.5742 60.4932 29.0421 60.9612 29.6192 60.9612Z" fill="#0F2644"/>
<path d="M23.3497 60.9611C23.9268 60.9611 24.3947 60.4931 24.3947 59.9158C24.3947 59.3385 23.9268 58.8705 23.3497 58.8705C22.7725 58.8705 22.3047 59.3385 22.3047 59.9158C22.3047 60.4931 22.7725 60.9611 23.3497 60.9611Z" fill="#0F2644"/>
<path d="M17.0797 60.9612C17.6568 60.9612 18.1247 60.4932 18.1247 59.9159C18.1247 59.3386 17.6568 58.8705 17.0797 58.8705C16.5025 58.8705 16.0347 59.3386 16.0347 59.9159C16.0347 60.4932 16.5025 60.9612 17.0797 60.9612Z" fill="#0F2644"/>
<path d="M10.8101 60.9611C11.3873 60.9611 11.8551 60.4931 11.8551 59.9158C11.8551 59.3385 11.3873 58.8705 10.8101 58.8705C10.233 58.8705 9.76514 59.3385 9.76514 59.9158C9.76514 60.4931 10.233 60.9611 10.8101 60.9611Z" fill="#0F2644"/>
<path d="M29.6193 54.5476C30.1965 54.5476 30.6644 54.0796 30.6644 53.5023C30.6644 52.9249 30.1965 52.4569 29.6193 52.4569C29.0421 52.4569 28.5742 52.9249 28.5742 53.5023C28.5742 54.0796 29.0421 54.5476 29.6193 54.5476Z" fill="#0F2644"/>
<path d="M23.3497 54.5476C23.9269 54.5476 24.3948 54.0795 24.3948 53.5022C24.3948 52.9249 23.9269 52.4568 23.3497 52.4568C22.7726 52.4568 22.3047 52.9249 22.3047 53.5022C22.3047 54.0795 22.7726 54.5476 23.3497 54.5476Z" fill="#0F2644"/>
<path d="M17.0797 54.5476C17.6569 54.5476 18.1248 54.0796 18.1248 53.5023C18.1248 52.9249 17.6569 52.4569 17.0797 52.4569C16.5026 52.4569 16.0347 52.9249 16.0347 53.5023C16.0347 54.0796 16.5026 54.5476 17.0797 54.5476Z" fill="#0F2644"/>
<path d="M10.8102 54.5476C11.3873 54.5476 11.8552 54.0795 11.8552 53.5022C11.8552 52.9249 11.3873 52.4568 10.8102 52.4568C10.233 52.4568 9.76514 52.9249 9.76514 53.5022C9.76514 54.0795 10.233 54.5476 10.8102 54.5476Z" fill="#0F2644"/>
<path d="M26.4869 57.5421C27.0641 57.5421 27.5319 57.0741 27.5319 56.4968C27.5319 55.9195 27.0641 55.4515 26.4869 55.4515C25.9098 55.4515 25.4419 55.9195 25.4419 56.4968C25.4419 57.0741 25.9098 57.5421 26.4869 57.5421Z" fill="#0F2644"/>
<path d="M20.2125 57.5421C20.7896 57.5421 21.2575 57.0741 21.2575 56.4968C21.2575 55.9195 20.7896 55.4515 20.2125 55.4515C19.6353 55.4515 19.1675 55.9195 19.1675 56.4968C19.1675 57.0741 19.6353 57.5421 20.2125 57.5421Z" fill="#0F2644"/>
<path d="M17.0797 48.1338C17.6568 48.1338 18.1247 47.6658 18.1247 47.0885C18.1247 46.5112 17.6568 46.0432 17.0797 46.0432C16.5025 46.0432 16.0347 46.5112 16.0347 47.0885C16.0347 47.6658 16.5025 48.1338 17.0797 48.1338Z" fill="#0F2644"/>
<path d="M13.9429 57.5421C14.5201 57.5421 14.9879 57.0741 14.9879 56.4968C14.9879 55.9195 14.5201 55.4515 13.9429 55.4515C13.3658 55.4515 12.8979 55.9195 12.8979 56.4968C12.8979 57.0741 13.3658 57.5421 13.9429 57.5421Z" fill="#0F2644"/>
<path d="M26.487 51.1287C27.0642 51.1287 27.5321 50.6606 27.5321 50.0832C27.5321 49.5058 27.0642 49.0378 26.487 49.0378C25.9098 49.0378 25.4419 49.5058 25.4419 50.0832C25.4419 50.6606 25.9098 51.1287 26.487 51.1287Z" fill="#0F2644"/>
<path d="M20.2126 51.1286C20.7898 51.1286 21.2577 50.6606 21.2577 50.0832C21.2577 49.5058 20.7898 49.0378 20.2126 49.0378C19.6354 49.0378 19.1675 49.5058 19.1675 50.0832C19.1675 50.6606 19.6354 51.1286 20.2126 51.1286Z" fill="#0F2644"/>
<path d="M13.943 51.1286C14.5202 51.1286 14.9881 50.6606 14.9881 50.0832C14.9881 49.5058 14.5202 49.0378 13.943 49.0378C13.3659 49.0378 12.8979 49.5058 12.8979 50.0832C12.8979 50.6606 13.3659 51.1286 13.943 51.1286Z" fill="#0F2644"/>
<path d="M13.9429 44.7149C14.5201 44.7149 14.9879 44.2469 14.9879 43.6696C14.9879 43.0923 14.5201 42.6243 13.9429 42.6243C13.3658 42.6243 12.8979 43.0923 12.8979 43.6696C12.8979 44.2469 13.3658 44.7149 13.9429 44.7149Z" fill="#0F2644"/>
<path d="M10.8102 67.3748C11.3874 67.3748 11.8553 66.9068 11.8553 66.3294C11.8553 65.7521 11.3874 65.284 10.8102 65.284C10.233 65.284 9.76514 65.7521 9.76514 66.3294C9.76514 66.9068 10.233 67.3748 10.8102 67.3748Z" fill="#0F2644"/>
<path d="M7.67301 70.3696C8.25019 70.3696 8.71809 69.9015 8.71809 69.3242C8.71809 68.7468 8.25019 68.2788 7.67301 68.2788C7.09583 68.2788 6.62793 68.7468 6.62793 69.3242C6.62793 69.9015 7.09583 70.3696 7.67301 70.3696Z" fill="#0F2644"/>
<path d="M20.2125 63.9558C20.7897 63.9558 21.2576 63.4878 21.2576 62.9105C21.2576 62.3332 20.7897 61.8651 20.2125 61.8651C19.6354 61.8651 19.1675 62.3332 19.1675 62.9105C19.1675 63.4878 19.6354 63.9558 20.2125 63.9558Z" fill="#0F2644"/>
<path d="M13.943 63.9558C14.5202 63.9558 14.988 63.4878 14.988 62.9105C14.988 62.3332 14.5202 61.8651 13.943 61.8651C13.3658 61.8651 12.8979 62.3332 12.8979 62.9105C12.8979 63.4878 13.3658 63.9558 13.943 63.9558Z" fill="#0F2644"/>
</svg>
