<svg width="18" height="18" viewBox="0 0 18 18" fill="none" xmlns="http://www.w3.org/2000/svg">
<path fill-rule="evenodd" clip-rule="evenodd" d="M16 3H2C1.44772 3 1 3.44772 1 4V16C1 16.5523 1.44772 17 2 17H16C16.5523 17 17 16.5523 17 16V4C17 3.44772 16.5523 3 16 3ZM2 2C0.895431 2 0 2.89543 0 4V16C0 17.1046 0.89543 18 2 18H16C17.1046 18 18 17.1046 18 16V4C18 2.89543 17.1046 2 16 2H2Z" fill="#222222"/>
<path d="M3 0.5C3 0.223858 3.22386 0 3.5 0C3.77614 0 4 0.223858 4 0.5V2H3V0.5Z" fill="#222222"/>
<path d="M13 0.5C13 0.223858 13.2239 0 13.5 0C13.7761 0 14 0.223858 14 0.5V2H13V0.5Z" fill="#222222"/>
<path d="M0 5H18V6H0V5Z" fill="#222222"/>
<path d="M8 9C8 8.44772 8.44772 8 9 8C9.55228 8 10 8.44772 10 9C10 9.55228 9.55228 10 9 10C8.44772 10 8 9.55228 8 9Z" fill="#222222"/>
<path d="M13 9C13 8.44772 13.4477 8 14 8C14.5523 8 15 8.44772 15 9C15 9.55228 14.5523 10 14 10C13.4477 10 13 9.55228 13 9Z" fill="#222222"/>
<path d="M13 14C13 13.4477 13.4477 13 14 13C14.5523 13 15 13.4477 15 14C15 14.5523 14.5523 15 14 15C13.4477 15 13 14.5523 13 14Z" fill="#222222"/>
<path d="M8 14C8 13.4477 8.44772 13 9 13C9.55228 13 10 13.4477 10 14C10 14.5523 9.55228 15 9 15C8.44772 15 8 14.5523 8 14Z" fill="#222222"/>
<path d="M3 14C3 13.4477 3.44772 13 4 13C4.55228 13 5 13.4477 5 14C5 14.5523 4.55228 15 4 15C3.44772 15 3 14.5523 3 14Z" fill="#222222"/>
<path d="M3 9C3 8.44772 3.44772 8 4 8C4.55228 8 5 8.44772 5 9C5 9.55228 4.55228 10 4 10C3.44772 10 3 9.55228 3 9Z" fill="#222222"/>
</svg>
