<svg width="20" height="20" viewBox="0 0 20 20" fill="none" xmlns="http://www.w3.org/2000/svg">
<path fill-rule="evenodd" clip-rule="evenodd" d="M10 19C14.9706 19 19 14.9706 19 10C19 5.02944 14.9706 1 10 1C5.02944 1 1 5.02944 1 10C1 14.9706 5.02944 19 10 19ZM10 20C15.5228 20 20 15.5228 20 10C20 4.47715 15.5228 0 10 0C4.47715 0 0 4.47715 0 10C0 15.5228 4.47715 20 10 20Z" fill="#006DB0"/>
<path d="M11 6C11 6.55228 10.5523 7 10 7C9.44771 7 9 6.55228 9 6C9 5.44772 9.44771 5 10 5C10.5523 5 11 5.44772 11 6Z" fill="#006DB0"/>
<path d="M11 14.0308V9C11 8.44772 10.5523 8 10 8C9.44772 8 9 8.44772 9 9V14.0308C9 14.5709 9.4289 15.0134 9.96877 15.0303C10.533 15.0479 11 14.5953 11 14.0308Z" fill="#006DB0"/>
</svg>
