<svg width="21" height="16" viewBox="0 0 21 16" fill="none" xmlns="http://www.w3.org/2000/svg">
<path fill-rule="evenodd" clip-rule="evenodd" d="M13.9574 14.25C13.9041 13.6263 13.801 13.0174 13.6513 12.4392C13.422 11.5533 13.0907 10.7681 12.6876 10.1231C12.2838 9.47716 11.8268 9.00124 11.361 8.69252C10.8997 8.38682 10.4391 8.25 10 8.25C9.56092 8.25 9.10031 8.38682 8.63904 8.69252C8.17322 9.00124 7.71623 9.47716 7.31249 10.1231C6.9094 10.7681 6.57806 11.5533 6.34871 12.4392C6.19901 13.0174 6.09598 13.6263 6.04261 14.25H13.9574ZM14.9903 14.7501C15.0011 15.0261 14.7762 15.25 14.5 15.25H5.50003C5.22388 15.25 4.999 15.0261 5.0098 14.7501C5.04421 13.8705 5.16929 13.0049 5.38063 12.1885C5.6319 11.2179 6.0002 10.336 6.46449 9.59315C6.92878 8.85028 7.47998 8.261 8.08661 7.85896C8.69324 7.45693 9.34342 7.25 10 7.25C10.6566 7.25 11.3068 7.45693 11.9134 7.85896C12.5201 8.261 13.0713 8.85028 13.5356 9.59315C13.9999 10.336 14.3682 11.2179 14.6194 12.1885C14.8308 13.0049 14.9558 13.8705 14.9903 14.7501Z" fill="#222222"/>
<path d="M6.75211 7.6523C6.53319 7.86088 6.16413 7.81365 5.9964 7.56206C5.69069 7.1035 5.3479 6.77041 5.00301 6.55612C4.66173 6.34408 4.32253 6.25 4.00003 6.25C3.67753 6.25 3.33833 6.34408 2.99704 6.55612C2.65215 6.77041 2.30936 7.1035 2.00365 7.56206C1.69826 8.02015 1.4447 8.58177 1.26843 9.22008C1.17703 9.55106 1.10819 9.89631 1.06313 10.25H4.26697C4.60907 10.25 4.84139 10.5989 4.7256 10.9208C4.65609 11.114 4.47392 11.25 4.26857 11.25H0.500027C0.223884 11.25 -0.00143763 11.026 0.0139254 10.7503C0.0232689 10.5826 0.0373044 10.4157 0.0559736 10.25C0.105965 9.80637 0.189182 9.37154 0.304509 8.9539C0.505527 8.22595 0.800165 7.56451 1.1716 7.00736C1.54303 6.45021 1.98399 6.00825 2.46929 5.70672C2.9546 5.40519 3.47474 5.25 4.00003 5.25C4.52531 5.25 5.04546 5.40519 5.53076 5.70672C6.01606 6.00825 6.45702 6.45021 6.82845 7.00736C6.8405 7.02542 6.85246 7.04359 6.86434 7.06188C6.98193 7.24284 6.9353 7.47963 6.77819 7.6276C6.76948 7.6358 6.76078 7.64404 6.75211 7.6523Z" fill="#222222"/>
<path fill-rule="evenodd" clip-rule="evenodd" d="M0.921187 10.375L0.939128 10.2342C0.984922 9.87482 1.0549 9.52373 1.14794 9.18681C1.3273 8.53729 1.586 7.96319 1.89964 7.49272C2.21358 7.02182 2.56864 6.67513 2.93107 6.44995C3.29039 6.2267 3.65221 6.125 4.00003 6.125C4.34784 6.125 4.70966 6.2267 5.06898 6.44995C5.43141 6.67513 5.78648 7.02182 6.10041 7.49272C6.22663 7.68205 6.50521 7.71489 6.66588 7.5618C6.67473 7.55337 6.6836 7.54497 6.69249 7.5366C6.8128 7.42329 6.83907 7.25239 6.75952 7.12999C6.74791 7.11212 6.73622 7.09435 6.72445 7.0767C6.36123 6.53187 5.93254 6.10352 5.46479 5.8129C4.99749 5.52255 4.49997 5.375 4.00003 5.375C3.50009 5.375 3.00256 5.52255 2.53526 5.8129C2.06751 6.10352 1.63882 6.53187 1.27561 7.0767C0.912426 7.62147 0.622924 8.27042 0.424999 8.98717C0.311481 9.39826 0.229472 9.82664 0.180187 10.264C0.161783 10.4273 0.147945 10.5919 0.138732 10.7572C0.127619 10.9567 0.290947 11.125 0.500027 11.125H4.26857C4.41788 11.125 4.55517 11.0253 4.60798 10.8785C4.69617 10.6333 4.51756 10.375 4.26697 10.375H0.921187ZM1.08009 10.125C1.12478 9.81493 1.18783 9.51196 1.26843 9.22008C1.4447 8.58177 1.69826 8.02015 2.00365 7.56206C2.30936 7.1035 2.65215 6.77041 2.99704 6.55612C3.33833 6.34408 3.67753 6.25 4.00003 6.25C4.32253 6.25 4.66173 6.34408 5.00301 6.55612C5.3479 6.77041 5.69069 7.1035 5.9964 7.56206C6.16413 7.81365 6.53319 7.86088 6.75211 7.6523C6.76078 7.64404 6.76948 7.6358 6.77819 7.6276C6.9353 7.47963 6.98193 7.24284 6.86434 7.06188C6.85246 7.04359 6.8405 7.02542 6.82845 7.00736C6.45702 6.45021 6.01606 6.00825 5.53076 5.70672C5.04546 5.40519 4.52531 5.25 4.00003 5.25C3.47474 5.25 2.9546 5.40519 2.46929 5.70672C1.98399 6.00825 1.54303 6.45021 1.1716 7.00736C0.800165 7.56451 0.505527 8.22595 0.304509 8.9539C0.189182 9.37154 0.105965 9.80637 0.0559736 10.25C0.0373044 10.4157 0.0232689 10.5826 0.0139254 10.7503C-0.00143763 11.026 0.223884 11.25 0.500027 11.25H4.26857C4.47392 11.25 4.65609 11.114 4.7256 10.9208C4.84139 10.5989 4.60907 10.25 4.26697 10.25H1.06313C1.06845 10.2082 1.07411 10.1665 1.08009 10.125Z" fill="#222222"/>
<path d="M13.3051 7.6523C13.524 7.86088 13.8931 7.81365 14.0608 7.56206C14.3665 7.1035 14.7093 6.77041 15.0542 6.55612C15.3955 6.34408 15.7347 6.25 16.0572 6.25C16.3797 6.25 16.7189 6.34408 17.0601 6.55612C17.405 6.77041 17.7478 7.1035 18.0535 7.56206C18.3589 8.02015 18.6125 8.58177 18.7887 9.22008C18.8801 9.55106 18.949 9.89631 18.9941 10.25H15.7902C15.4481 10.25 15.2158 10.5989 15.3316 10.9208C15.4011 11.114 15.5833 11.25 15.7886 11.25H19.5572C19.8333 11.25 20.0586 11.026 20.0433 10.7503C20.0339 10.5826 20.0199 10.4157 20.0012 10.25C19.9512 9.80637 19.868 9.37154 19.7527 8.9539C19.5517 8.22595 19.257 7.56451 18.8856 7.00736C18.5141 6.45021 18.0732 6.00825 17.5879 5.70672C17.1026 5.40519 16.5824 5.25 16.0572 5.25C15.5319 5.25 15.0117 5.40519 14.5264 5.70672C14.0411 6.00825 13.6002 6.45021 13.2287 7.00736C13.2167 7.02542 13.2047 7.04359 13.1928 7.06188C13.0752 7.24284 13.1219 7.47963 13.279 7.6276C13.2877 7.6358 13.2964 7.64404 13.3051 7.6523Z" fill="#222222"/>
<path fill-rule="evenodd" clip-rule="evenodd" d="M19.136 10.375L19.1181 10.2342C19.0723 9.87482 19.0023 9.52373 18.9092 9.18681C18.7299 8.53729 18.4712 7.96319 18.1575 7.49272C17.8436 7.02182 17.4885 6.67513 17.1261 6.44995C16.7668 6.2267 16.405 6.125 16.0572 6.125C15.7093 6.125 15.3475 6.2267 14.9882 6.44995C14.6258 6.67513 14.2707 7.02182 13.9568 7.49272C13.8306 7.68205 13.552 7.71489 13.3913 7.5618C13.3824 7.55337 13.3736 7.54497 13.3647 7.5366C13.2444 7.42329 13.2181 7.25239 13.2977 7.12999C13.3093 7.11212 13.321 7.09435 13.3327 7.0767C13.696 6.53187 14.1246 6.10352 14.5924 5.8129C15.0597 5.52255 15.5572 5.375 16.0572 5.375C16.5571 5.375 17.0546 5.52255 17.5219 5.8129C17.9897 6.10352 18.4184 6.53187 18.7816 7.0767C19.1448 7.62147 19.4343 8.27042 19.6322 8.98717C19.7457 9.39826 19.8277 9.82664 19.877 10.264C19.8954 10.4273 19.9092 10.5919 19.9184 10.7572C19.9296 10.9567 19.7662 11.125 19.5572 11.125H15.7886C15.6393 11.125 15.502 11.0253 15.4492 10.8785C15.361 10.6333 15.5396 10.375 15.7902 10.375H19.136ZM18.9771 10.125C18.9324 9.81493 18.8693 9.51196 18.7887 9.22008C18.6125 8.58177 18.3589 8.02015 18.0535 7.56206C17.7478 7.1035 17.405 6.77041 17.0601 6.55612C16.7189 6.34408 16.3797 6.25 16.0572 6.25C15.7347 6.25 15.3955 6.34408 15.0542 6.55612C14.7093 6.77041 14.3665 7.1035 14.0608 7.56206C13.8931 7.81365 13.524 7.86088 13.3051 7.6523C13.2964 7.64404 13.2877 7.6358 13.279 7.6276C13.1219 7.47963 13.0752 7.24284 13.1928 7.06188C13.2047 7.04359 13.2167 7.02542 13.2287 7.00736C13.6002 6.45021 14.0411 6.00825 14.5264 5.70672C15.0117 5.40519 15.5319 5.25 16.0572 5.25C16.5824 5.25 17.1026 5.40519 17.5879 5.70672C18.0732 6.00825 18.5141 6.45021 18.8856 7.00736C19.257 7.56451 19.5517 8.22595 19.7527 8.9539C19.868 9.37154 19.9512 9.80637 20.0012 10.25C20.0199 10.4157 20.0339 10.5826 20.0433 10.7503C20.0586 11.026 19.8333 11.25 19.5572 11.25H15.7886C15.5833 11.25 15.4011 11.114 15.3316 10.9208C15.2158 10.5989 15.4481 10.25 15.7902 10.25H18.9941C18.9887 10.2082 18.9831 10.1665 18.9771 10.125Z" fill="#222222"/>
<path fill-rule="evenodd" clip-rule="evenodd" d="M10 5.25C10.8285 5.25 11.5 4.57843 11.5 3.75C11.5 2.92157 10.8285 2.25 10 2.25C9.1716 2.25 8.50003 2.92157 8.50003 3.75C8.50003 4.57843 9.1716 5.25 10 5.25ZM10 6.25C11.3807 6.25 12.5 5.13071 12.5 3.75C12.5 2.36929 11.3807 1.25 10 1.25C8.61931 1.25 7.50003 2.36929 7.50003 3.75C7.50003 5.13071 8.61931 6.25 10 6.25Z" fill="#222222"/>
<path fill-rule="evenodd" clip-rule="evenodd" d="M4.00003 3.75C4.55231 3.75 5.00003 3.30228 5.00003 2.75C5.00003 2.19772 4.55231 1.75 4.00003 1.75C3.44774 1.75 3.00003 2.19772 3.00003 2.75C3.00003 3.30228 3.44774 3.75 4.00003 3.75ZM4.00003 4.75C5.1046 4.75 6.00003 3.85457 6.00003 2.75C6.00003 1.64543 5.1046 0.75 4.00003 0.75C2.89546 0.75 2.00003 1.64543 2.00003 2.75C2.00003 3.85457 2.89546 4.75 4.00003 4.75Z" fill="#222222"/>
<path fill-rule="evenodd" clip-rule="evenodd" d="M16 3.75C16.5523 3.75 17 3.30228 17 2.75C17 2.19772 16.5523 1.75 16 1.75C15.4477 1.75 15 2.19772 15 2.75C15 3.30228 15.4477 3.75 16 3.75ZM16 4.75C17.1046 4.75 18 3.85457 18 2.75C18 1.64543 17.1046 0.75 16 0.75C14.8955 0.75 14 1.64543 14 2.75C14 3.85457 14.8955 4.75 16 4.75Z" fill="#222222"/>
</svg>
